# AST/ASF file generated using VICON BodyLanguage
# -----------------------------------------------
:version 1.10
:name VICON
:units
  mass 1.0
  length 0.45
  angle deg
:documentation
   .ast/.asf automatically generated from VICON data using
   VICON BodyBuilder and BodyLanguage model FoxedUp or BRILLIANT.MOD
:root
   order TX TY TZ RX RY RZ
   axis XYZ
   position 0 0 0  
   orientation 0 0 0 
:bonedata
  begin
     id 1 
     name lhipjoint
     direction 0.678564 -0.644259 0.352817 
     length 2.99514 
     axis 0 0 0  XYZ
  end
  begin
     id 2 
     name lfemur
     direction 0.34202 -0.939693 0  
     length 7.29983  
     axis 0 0 20  XYZ
    dof rx ry rz
    limits (-160.0 20.0)
           (-70.0 70.0)
           (-60.0 70.0)
  end
  begin
     id 3 
     name ltibia
     direction 0.34202 -0.939693 0   
     length 8.59502   
     axis 0 0 20   XYZ
    dof rx
    limits (-10.0 170.0)
  end
  begin
     id 4 
     name lfoot
     direction 0.256607 -0.705022 0.661133   
     length 2.92136   
     axis -90 7.62852e-016 20   XYZ
    dof rx rz
    limits (-45.0 90.0)
           (-70.0 20.0)
  end
  begin
     id 5 
     name ltoes
     direction 1.53673e-011 -4.22167e-011 1   
     length 1.31421   
     axis -90 7.62852e-016 20   XYZ
    dof rx
    limits (-90.0 20.0)
  end
  begin
     id 6 
     name rhipjoint
     direction -0.664671 -0.655307 0.358867   
     length 2.94464  
     axis 0 0 0  XYZ 
  end
  begin
     id 7 
     name rfemur
     direction -0.34202 -0.939693 0   
     length 7.1902   
     axis 0 0 -20   XYZ
    dof rx ry rz
    limits (-160.0 20.0)
           (-70.0 70.0)
           (-70.0 60.0)
  end
  begin
     id 8 
     name rtibia
     direction -0.342306 -0.939589 0   
     length 7.92304   
     axis 0 0 -20   XYZ
    dof rx
    limits (-10.0 170.0)
 end
 begin
     id 9 
     name rfoot
     direction -0.135083 -0.371136 0.9187   
     length 2.14777  
     axis -90 -7.62852e-016 -20   XYZ
    dof rx rz
    limits (-45.0 90.0)
           (-20.0 70.0)
  end
  begin
     id 10 
     name rtoes
     direction -1.53535e-011 -4.21537e-011 1   
     length 1.05997   
     axis -90 -7.62852e-016 -20   XYZ
    dof rx
    limits (-90.0 20.0)
  end
  begin
     id 11 
     name lowerback
     direction -0.0195507 0.995133 0.0965771   
     length 2.09792   
     axis 0 0 0   XYZ
    dof rx ry rz
    limits (-20.0 45.0)
           (-30.0 30.0)
           (-30.0 30.0)
  end
  begin
     id 12 
     name upperback
     direction 0.00551419 0.999637 0.0263729   
     length 2.10514   
     axis 0 0 0   XYZ
    dof rx ry rz
    limits (-20.0 45.0)
           (-30.0 30.0)
           (-30.0 30.0)
  end
  begin
     id 13 
     name thorax
     direction 0.0138853 0.999728 -0.0187549   
     length 2.12411   
     axis 0 0 0   XYZ
    dof rx ry rz
    limits (-20.0 45.0)
           (-30.0 30.0)
           (-30.0 30.0)
  end
  begin
     id 14 
     name lowerneck
     direction 0.00575564 0.995441 0.0952053   
     length 2.98955   
     axis 0 0 0   XYZ
    dof rx ry rz
    limits (-20.0 45.0)
           (-30.0 30.0)
           (-30.0 30.0)
  end
  begin
     id 15 
     name upperneck
     direction 0.0362743 0.998452 -0.0421753   
     length 3.03688   
     axis 0 0 0   XYZ
    dof rx ry rz
    limits (-20.0 45.0)
           (-30.0 30.0)
           (-30.0 30.0)
  end
  begin
     id 16
     name head
     direction -0.0138164 0.799054 0.6011  
     length 1.47017  
     axis 0 0 0   XYZ
    dof rx ry rz
    limits (-20.0 45.0)
           (-30.0 30.0)
           (-30.0 30.0)
  end
  begin
     id 17 
     name lclavicle
     direction 0.925636 0.378361 -0.006363  
     length 3.33831  
     axis 0 0 0   XYZ
    dof ry rz
    limits (-20.0 10.0)
           (0.0 20.0)
  end
  begin
     id 18 
     name lhumerus
     direction 1 -4.48983e-011 -5.50319e-028   
     length 4.79344   
     axis -180 -30 -90   XYZ
    dof rx ry rz
    limits (-60.0 90.0)
           (-90.0 90.0)
           (-90.0 90.0)
  end
  begin
     id 19
     name lradius
     direction 1 -4.48905e-011 9.20478e-027   
     length 2.94221   
     axis -180 -30 -90   XYZ
    dof rx
    limits (-10.0 170.0)
  end
  begin
     id 20
     name lwrist
     direction 1 -4.4898e-011 2.08228e-026   
     length 1.4711   
     axis -1.38353e-014 90 90   XYZ
    dof ry
    limits (-180.0 0.0)
 end
  begin
     id 21 
     name lhand
     direction 1 -4.48957e-011 4.16456e-026   
     length 0.889984   
     axis -2.65735e-014 90 90   XYZ
    dof rx rz
    limits (-90.0 90.0)
           (-45.0 45.0)
  end
  begin
     id 22 
     name lfingers
     direction 1 -4.49044e-011 8.32913e-026   
     length 0.717528   
     axis -5.3147e-014 90 90   XYZ
    dof rx
    limits (0.0 90.0)
  end
  begin
     id 23
     name lthumb
     direction 0.707107 -6.35171e-011 0.707107   
     length 1.03023   
     axis -90 45 2.85299e-015   XYZ
    dof rx rz
    limits (-45.0 45.0)
           (-45.0 45.0)
  end
  begin
     id 24 
     name rclavicle
     direction -0.892514 0.445149 0.0725343   
     length 3.17271  
     axis 0 0 0   XYZ 
    dof ry rz
    limits (-10.0 20.0)
           (-20.0 0.0)
  end
  begin
     id 25 
     name rhumerus
     direction -1 -4.48952e-011 5.59695e-028  
     length 5.4863   
     axis -180 30 90   XYZ
    dof rx ry rz
    limits (-90.0 60.0)
           (-90.0 90.0)
           (-90.0 90.0)
  end
  begin
     id 26 
     name rradius
     direction -1 -4.48963e-011 1.14146e-026   
     length 3.17201   
     axis -180 30 90   XYZ
    dof rx
    limits (-10.0 170.0)
  end
  begin
     id 27 
     name rwrist
     direction -1 -4.49046e-011 2.08228e-026   
     length 1.58601   
     axis -1.38353e-014 -90 -90   XYZ
    dof ry
    limits (-180.0 0.0)
  end
  begin
     id 28
     name rhand
     direction -1 -4.48815e-011 4.16456e-026   
     length 0.874513   
     axis -2.65735e-014 -90 -90   XYZ
    dof rx rz
    limits (-90.0 90.0)
           (-45.0 45.0)
  end
  begin
     id 29
     name rfingers
     direction -1 -4.48918e-011 8.32913e-026   
     length 0.705055   
     axis -5.3147e-014 -90 -90   XYZ
    dof rx
    limits (0.0 90.0)
  end
  begin
     id 30
     name rthumb
     direction -0.707107 -6.34858e-011 0.707107   
     length 1.01232   
     axis -90 -45 -2.85299e-015   XYZ
    dof rx rz
    limits (-45.0 45.0)
           (-45.0 45.0)
  end
:hierarchy
  begin
    root lhipjoint rhipjoint lowerback
    lhipjoint lfemur
    lfemur ltibia
    ltibia lfoot
    lfoot ltoes
    rhipjoint rfemur
    rfemur rtibia
    rtibia rfoot
    rfoot rtoes
    lowerback upperback
    upperback thorax
    thorax lowerneck lclavicle rclavicle
    lowerneck upperneck
    upperneck head
    lclavicle lhumerus
    lhumerus lradius
    lradius lwrist
    lwrist lhand lthumb
    lhand lfingers
    rclavicle rhumerus
    rhumerus rradius
    rradius rwrist
    rwrist rhand rthumb
    rhand rfingers
  end

#!OML:ASF F:\VICON\USERDATA\INSTALL\rory3\rory3.ASF
:FULLY-SPECIFIED
:DEGREES
1037
root 3.63762 18.4565 -0.857331 -100.082 87.3274 -114.409
lowerback -9.51461 -0.212198 -4.35786
upperback -2.1265 0.316511 -2.05794
thorax 3.11436 0.170597 0.356483
lowerneck -20.7309 -10.9778 -3.83689
upperneck 2.31465 41.7716 -1.16344
head 26.122 27.6881 178.148
rclavicle 2.68359e-015 -1.59028e-015
rhumerus -109.512 48.468 -138.62
rradius 91.7408
rwrist 12.2633
rhand -50.9616 1.15706
rfingers 7.12502
rthumb -23.5117 -27.426
lclavicle 2.68359e-015 -1.59028e-015
lhumerus -10.9789 44.6483 21.9058
lradius 90.6862
lwrist 3.36872
lhand 1.63346 22.854
lfingers 7.12502
lthumb 27.154 50.9205
rfemur -9.71156 17.5966 19.9377
rtibia 7.2636
rfoot -17.282 -20.8027
rtoes -13.0814
lfemur -15.8676 -5.8208 -19.9711
ltibia 20.5173
lfoot -2.51787 6.68673
ltoes -10.0266
1038
root 3.63802 18.4554 -0.856287 -100.739 87.3008 -115.078
lowerback -9.53724 -0.214834 -4.31154
upperback -2.13225 0.308445 -2.03473
thorax 3.12133 0.166693 0.353675
lowerneck -20.7554 -10.9933 -3.80344
upperneck 2.31055 41.7997 -1.16625
head 26.1652 27.7656 178.216
rclavicle -5.96354e-016 3.81667e-014
rhumerus -109.455 48.4538 -138.547
rradius 91.7775
rwrist 12.2675
rhand -51.0164 1.16416
rfingers 7.12502
rthumb -23.5644 -27.4122
lclavicle -5.96354e-016 3.81667e-014
lhumerus -11.0515 44.6083 21.8176
lradius 90.6492
lwrist 3.45709
lhand 1.66245 22.8256
lfingers 7.12502
lthumb 27.1817 50.8877
rfemur -9.71482 17.5612 19.949
rtibia 7.2409
rfoot -17.2534 -20.8531
rtoes -13.1
lfemur -15.891 -5.83948 -19.9507
ltibia 20.5321
lfoot -2.5296 6.71313
ltoes -10.13
1039
root 3.6384 18.4546 -0.854365 -101.078 87.2913 -115.438
lowerback -9.56946 -0.195423 -4.26311
upperback -2.1286 0.331593 -2.03782
thorax 3.14245 0.178121 0.326173
lowerneck -20.7793 -11.0437 -3.72539
upperneck 2.27052 41.6269 -1.17962
head 26.1391 27.5957 178.261
rclavicle -3.47873e-015 1.74931e-014
rhumerus -109.335 48.423 -138.447
rradius 91.7653
rwrist 12.3475
rhand -51.0397 1.08131
rfingers 7.12502
rthumb -23.5867 -27.4922
lclavicle -3.47873e-015 1.74931e-014
lhumerus -11.0176 44.6383 21.8382
lradius 90.6293
lwrist 3.50871
lhand 1.72485 22.7009
lfingers 7.12502
lthumb 27.2414 50.7537
rfemur -9.75359 17.5424 19.941
rtibia 7.24618
rfoot -17.155 -20.8504
rtoes -13.5127
lfemur -15.935 -5.82741 -19.9383
ltibia 20.5655
lfoot -2.53813 6.74524
ltoes -10.1006
1040
root 3.63881 18.4539 -0.854462 -101.798 87.3135 -116.172
lowerback -9.4866 -0.16762 -4.22555
upperback -2.20568 0.358269 -2.04146
thorax 3.0157 0.195265 0.304497
lowerneck -20.7475 -11.0641 -3.71556
upperneck 2.31351 41.749 -1.15377
head 26.2025 27.7243 178.279
rclavicle 5.96354e-016 3.18055e-015
rhumerus -109.365 48.275 -138.387
rradius 91.7927
rwrist 12.4928
rhand -51.0148 0.966755
rfingers 7.12502
rthumb -23.5628 -27.6098
lclavicle 5.96354e-016 3.18055e-015
lhumerus -11.0327 44.5603 21.9016
lradius 90.6361
lwrist 3.58138
lhand 1.71371 22.6459
lfingers 7.12502
lthumb 27.2308 50.7003
rfemur -9.82023 17.5122 19.8978
rtibia 7.3477
rfoot -17.1886 -20.8304
rtoes -13.5358
lfemur -15.9549 -5.88746 -19.9635
ltibia 20.5718
lfoot -2.51301 6.7629
ltoes -10.174
1041
root 3.64001 18.4538 -0.853915 -102.841 87.2783 -117.212
lowerback -9.37165 -0.161607 -4.14953
upperback -2.30854 0.348502 -2.01825
thorax 2.84586 0.195391 0.284696
lowerneck -20.6572 -11.0625 -3.77182
upperneck 2.38945 41.9515 -1.11688
head 26.2744 27.969 178.282
rclavicle 4.87022e-015 -3.18055e-015
rhumerus -109.457 48.1019 -138.382
rradius 91.8167
rwrist 12.5184
rhand -50.9329 0.864844
rfingers 7.12502
rthumb -23.4843 -27.7218
lclavicle 4.87022e-015 -3.18055e-015
lhumerus -11.1963 44.4015 21.8282
lradius 90.6828
lwrist 3.60664
lhand 1.72709 22.6278
lfingers 7.12502
lthumb 27.2436 50.6802
rfemur -9.86737 17.4585 19.9256
rtibia 7.47235
rfoot -17.2753 -20.8465
rtoes -13.5594
lfemur -15.9422 -5.90213 -19.9421
ltibia 20.5589
lfoot -2.56039 6.81984
ltoes -10.2438
1042
root 3.6421 18.4531 -0.852785 -103.487 87.312 -117.864
lowerback -9.39775 -0.160263 -4.15921
upperback -2.30887 0.352222 -2.00373
thorax 2.85966 0.196931 0.305641
lowerneck -20.6855 -11.0763 -3.80188
upperneck 2.36528 41.901 -1.13544
head 26.2701 28.0289 178.321
rclavicle -5.36719e-015 1.59028e-015
rhumerus -109.438 48.0744 -138.33
rradius 91.8397
rwrist 12.5175
rhand -50.898 0.645552
rfingers 7.12502
rthumb -23.4508 -27.9453
lclavicle -5.36719e-015 1.59028e-015
lhumerus -11.2784 44.3761 21.8005
lradius 90.7081
lwrist 3.56256
lhand 1.62451 22.6227
lfingers 7.12502
lthumb 27.1454 50.6905
rfemur -9.90228 17.4371 19.8822
rtibia 7.55408
rfoot -17.3468 -20.8411
rtoes -13.6265
lfemur -15.9229 -5.93378 -19.9852
ltibia 20.5327
lfoot -2.53814 6.86818
ltoes -10.2721
1043
root 3.64233 18.4527 -0.850884 -103.53 87.3601 -117.924
lowerback -9.47159 -0.156767 -4.19213
upperback -2.26637 0.364954 -1.99317
thorax 2.94395 0.200834 0.336645
lowerneck -20.7887 -11.0735 -3.76625
upperneck 2.32471 41.8385 -1.1428
head 26.2647 28.0471 178.325
rclavicle -2.5842e-015 6.36111e-015
rhumerus -109.374 48.1348 -138.264
rradius 91.8388
rwrist 12.5859
rhand -50.9315 0.634726
rfingers 7.12502
rthumb -23.4829 -27.9521
lclavicle -2.5842e-015 6.36111e-015
lhumerus -11.2754 44.4862 21.8362
lradius 90.6703
lwrist 3.41471
lhand 1.64925 22.4464
lfingers 7.12502
lthumb 27.1691 50.5105
rfemur -9.9199 17.4472 19.8318
rtibia 7.54717
rfoot -17.3834 -20.8399
rtoes -13.5029
lfemur -15.9299 -5.92199 -20.029
ltibia 20.505
lfoot -2.53574 6.84285
ltoes -10.2609
1044
root 3.64098 18.4523 -0.84858 -102.848 87.3442 -117.241
lowerback -9.31411 -0.121498 -4.1294
upperback -2.37156 0.393666 -1.99068
thorax 2.74691 0.220502 0.307077
lowerneck -20.7521 -11.0859 -3.69741
upperneck 2.362 41.8333 -1.0868
head 26.2704 28.0422 178.269
rclavicle -3.37934e-015 9.54166e-015
rhumerus -109.447 47.9695 -138.31
rradius 91.8163
rwrist 12.6597
rhand -50.9008 0.735472
rfingers 7.12502
rthumb -23.4535 -27.8551
lclavicle -3.37934e-015 9.54166e-015
lhumerus -11.3328 44.3565 21.8109
lradius 90.6653
lwrist 3.29543
lhand 1.7379 22.3291
lfingers 7.12502
lthumb 27.2539 50.3799
rfemur -9.95816 17.4783 19.8686
rtibia 7.6006
rfoot -17.4182 -20.8372
rtoes -13.3773
lfemur -15.908 -5.9286 -19.9838
ltibia 20.4363
lfoot -2.53205 6.75325
ltoes -10.1716
1045
root 3.64213 18.4537 -0.847883 -103.277 87.3398 -117.663
lowerback -9.22486 -0.131401 -4.08559
upperback -2.43223 0.368775 -1.97091
thorax 2.63557 0.211055 0.299945
lowerneck -20.7279 -11.1058 -3.61976
upperneck 2.3472 41.7242 -1.09077
head 26.2372 27.8084 178.274
rclavicle 2.08724e-015 0
rhumerus -109.569 47.9352 -138.414
rradius 91.8038
rwrist 12.5703
rhand -50.7753 0.859611
rfingers 7.12502
rthumb -23.3331 -27.7463
lclavicle 2.08724e-015 0
lhumerus -11.4737 44.2861 21.7074
lradius 90.699
lwrist 3.32783
lhand 1.7554 22.3555
lfingers 7.12502
lthumb 27.2706 50.4036
rfemur -9.97146 17.4622 19.8849
rtibia 7.67391
rfoot -17.4668 -20.7857
rtoes -13.2913
lfemur -15.8662 -5.90347 -19.99
ltibia 20.3647
lfoot -2.58975 6.67416
ltoes -10.1054
1046
root 3.64225 18.4546 -0.847518 -104.442 87.429 -118.822
lowerback -9.41569 -0.172821 -4.17416
upperback -2.27638 0.336153 -1.95854
thorax 2.90349 0.187018 0.358986
lowerneck -20.9477 -11.0714 -3.5485
upperneck 2.24982 41.6287 -1.13716
head 26.2112 27.6947 178.278
rclavicle 2.5842e-015 -2.06736e-014
rhumerus -109.448 48.1999 -138.368
rradius 91.7939
rwrist 12.4452
rhand -50.8042 0.965554
rfingers 7.12502
rthumb -23.3608 -27.6368
lclavicle 2.5842e-015 -2.06736e-014
lhumerus -11.3962 44.6314 21.7667
lradius 90.7033
lwrist 3.29356
lhand 1.86951 22.4061
lfingers 7.12502
lthumb 27.3798 50.437
rfemur -9.97559 17.4358 19.7999
rtibia 7.73525
rfoot -17.4547 -20.8069
rtoes -13.528
lfemur -15.8278 -5.92735 -20.0986
ltibia 20.3143
lfoot -2.58257 6.6217
ltoes -9.96819
